# xmcd
#
# Track frame offsets: 
#        150
#        24274
#        98122
#        118457
#        136036
#        156093
#        173386
#        189361
#        204494
#        259965
#        283219
#        301042
#
# Disc length: 4390 seconds
#
# Revision: 1
# Processed by: cddbd v1.5.2PL0 Copyright (c) Steve Scherf et al.
# Submitted via: ExactAudioCopy v1.2
#
DISCID=9b11240c
DTITLE=Miles Davis II - Connoisseur Jazz Cuts - CD 2 of 20
DYEAR=2012
DGENRE=Jazz
TTITLE0=Blues for Pablo
TTITLE1=Concierto de Aranjuez
TTITLE2=My Ship
TTITLE3=The Pan Piper
TTITLE4=It Ain't Neccessarily so
TTITLE5=Will o' the Wisp
TTITLE6=Miles ahead
TTITLE7=Summertime
TTITLE8=Solea
TTITLE9=Saeta
TTITLE10=The Maids of Cadiz
TTITLE11=My Man's Gone now
EXTD=YEAR: 2012
EXTT0=
EXTT1=
EXTT2=
EXTT3=
EXTT4=
EXTT5=
EXTT6=
EXTT7=
EXTT8=
EXTT9=
EXTT10=
EXTT11=
PLAYORDER=
